<svg width="46" height="46" viewBox="0 0 46 46" fill="none" xmlns="http://www.w3.org/2000/svg">
<path d="M23 0C10.3093 0 0 10.3093 0 23C0 35.6907 10.3093 46 23 46C35.6907 46 46 35.6907 46 23C46 10.3093 35.6907 0 23 0ZM23 2C34.6098 2 44 11.3902 44 23C44 34.6098 34.6098 44 23 44C11.3902 44 2 34.6098 2 23C2 11.3902 11.3902 2 23 2ZM35.0391 8.99023C34.8938 8.98604 34.7493 9.01358 34.6157 9.07092C34.4821 9.12827 34.3627 9.21404 34.2656 9.32227L24.1836 20.2441C23.8097 20.0833 23.407 20.0002 23 20C22.2044 20 21.4413 20.3161 20.8787 20.8787C20.3161 21.4413 20 22.2044 20 23C20 23.7956 20.3161 24.5587 20.8787 25.1213C21.4413 25.6839 22.2044 26 23 26C23.1675 26.0003 23.3348 25.9866 23.5 25.959L27.125 32.4863C27.1889 32.6013 27.2747 32.7025 27.3777 32.7842C27.4807 32.866 27.5987 32.9266 27.7252 32.9627C27.8516 32.9988 27.9839 33.0097 28.1145 32.9946C28.2451 32.9796 28.3715 32.939 28.4864 32.8751C28.6013 32.8113 28.7025 32.7254 28.7842 32.6224C28.866 32.5194 28.9266 32.4013 28.9627 32.2749C28.9988 32.1485 29.0096 32.0162 28.9946 31.8856C28.9795 31.7549 28.9389 31.6286 28.875 31.5137L25.2461 24.9844C25.7308 24.4369 25.9989 23.7312 26 23C25.9998 22.5119 25.8804 22.0312 25.6523 21.5996L35.7344 10.6777C35.8671 10.5377 35.9564 10.3623 35.9917 10.1727C36.0269 9.98301 36.0066 9.78721 35.9331 9.60886C35.8596 9.43051 35.7361 9.27722 35.5775 9.16745C35.4189 9.05769 35.2319 8.99615 35.0391 8.99023V8.99023Z" fill="#05FF00"/>
</svg>
