<svg width="27" height="26" viewBox="0 0 27 26" fill="none" xmlns="http://www.w3.org/2000/svg">
<path d="M13 -5.48026e-05C9.85526 0.000905425 6.8175 1.14173 4.44956 3.21104C2.08162 5.28034 0.544038 8.13784 0.121707 11.2541C-0.300624 14.3703 0.420933 17.5339 2.15268 20.1589C3.88443 22.7838 6.50896 24.692 9.53997 25.5299C9.67001 25.5789 9.80883 25.6002 9.94756 25.5925C10.0863 25.5848 10.2219 25.5482 10.3457 25.4852C10.4695 25.4222 10.5789 25.334 10.6668 25.2264C10.7546 25.1188 10.8191 24.994 10.8561 24.8601C10.893 24.7262 10.9017 24.586 10.8815 24.4485C10.8613 24.3111 10.8126 24.1793 10.7387 24.0617C10.6647 23.9441 10.567 23.8431 10.4519 23.7654C10.3368 23.6876 10.2067 23.6347 10.07 23.6099C7.55313 22.9208 5.36327 21.3593 3.89155 19.2044C2.41982 17.0495 1.76209 14.4417 2.03584 11.8466C2.30959 9.25147 3.49699 6.83822 5.38594 5.03786C7.27489 3.2375 9.74236 2.1673 12.3476 2.01843C14.9528 1.86956 17.5261 2.65171 19.6079 4.22517C21.6896 5.79864 23.1442 8.06092 23.7118 10.6079C24.2794 13.1549 23.923 15.8208 22.7063 18.1293C21.4896 20.4378 19.4919 22.2385 17.07 23.2099C17.133 21.8959 17.0323 20.5791 16.77 19.2899C18.1914 18.9747 19.4588 18.1745 20.3547 17.0268C21.2506 15.8791 21.7192 14.4554 21.68 12.9999C21.7521 11.6309 21.3842 10.2747 20.63 9.12995C20.7698 7.99408 20.6325 6.84125 20.23 5.76995C20.1549 5.54656 20.0034 5.35685 19.8022 5.23427C19.6009 5.11169 19.3629 5.06412 19.13 5.09995C17.9239 5.26467 16.7713 5.70245 15.76 6.37995C14.8591 6.14042 13.9321 6.01279 13 5.99995C11.9867 6.02664 10.9799 6.17094 9.99997 6.42995C9.02791 5.68633 7.84362 5.27288 6.61997 5.24995C6.40437 5.23721 6.19044 5.29463 6.01018 5.4136C5.82992 5.53257 5.69302 5.7067 5.61997 5.90995C5.25322 6.93074 5.12661 8.02231 5.24997 9.09995C4.53244 10.272 4.16789 11.6261 4.19997 12.9999C4.23702 14.4481 4.74522 15.8446 5.6475 16.9779C6.54979 18.1112 7.79697 18.9194 9.19997 19.2799C9.13574 19.5404 9.08567 19.8041 9.04997 20.0699C8.04997 20.1299 7.46997 19.5199 6.72997 18.5899C6.29436 17.8579 5.60334 17.313 4.78997 17.0599C4.53738 17.0149 4.27715 17.0687 4.0631 17.2101C3.84905 17.3516 3.69756 17.5699 3.63997 17.8199C3.58458 18.0701 3.62736 18.3321 3.75948 18.5516C3.8916 18.7712 4.10297 18.9317 4.34997 18.9999C4.50997 18.9999 4.89997 19.5199 5.11997 19.8099C5.51843 20.4585 6.06724 21.0016 6.71998 21.3933C7.37271 21.7849 8.11017 22.0136 8.86997 22.0599C9.30947 22.0594 9.74684 21.9988 10.17 21.8799C10.2736 21.8493 10.3715 21.802 10.46 21.7399C10.533 21.6822 10.5941 21.6109 10.64 21.5299C10.6718 21.5049 10.6989 21.4745 10.72 21.4399C10.7459 21.3856 10.7661 21.3286 10.78 21.2699C10.8045 21.2047 10.8246 21.1379 10.84 21.0699V21.0699C10.8366 20.4055 10.9945 19.7501 11.3 19.1599C11.4242 19.0147 11.5042 18.8368 11.5305 18.6475C11.5568 18.4581 11.5283 18.2652 11.4483 18.0916C11.3683 17.918 11.2403 17.7709 11.0793 17.6678C10.9183 17.5647 10.7311 17.5099 10.54 17.5099C9.38098 17.4445 8.28958 16.9433 7.48466 16.1069C6.67975 15.2704 6.22083 14.1606 6.19997 12.9999C6.15044 11.9313 6.45638 10.8763 7.06997 9.99995C7.16948 9.88834 7.2427 9.75584 7.28423 9.6122C7.32577 9.46856 7.33456 9.31743 7.30997 9.16995C7.19489 8.55865 7.19489 7.93124 7.30997 7.31994C7.96435 7.45852 8.567 7.77717 9.04997 8.23995C9.18033 8.36504 9.34214 8.45249 9.51822 8.49299C9.6943 8.53348 9.87805 8.52552 10.05 8.46995C11.011 8.19583 12.0014 8.03803 13 7.99995C13.8987 8.02241 14.7902 8.16707 15.65 8.42995C15.8175 8.49203 15.9987 8.50807 16.1745 8.47642C16.3504 8.44476 16.5146 8.36656 16.65 8.24995C17.2326 7.7699 17.9164 7.42802 18.65 7.24995C18.8 7.87778 18.8 8.53211 18.65 9.15995C18.6108 9.34005 18.6198 9.52728 18.676 9.70282C18.7322 9.87835 18.8336 10.036 18.97 10.1599C19.557 10.9829 19.8107 11.9976 19.68 12.9999C19.7035 13.5877 19.606 14.174 19.3933 14.7225C19.1807 15.2709 18.8575 15.7698 18.4439 16.1881C18.0304 16.6063 17.5352 16.9351 16.9892 17.1539C16.4431 17.3727 15.858 17.4769 15.27 17.4599C15.0656 17.4593 14.866 17.5212 14.698 17.6374C14.5299 17.7536 14.4015 17.9185 14.33 18.1099C14.2574 18.3014 14.2453 18.5105 14.2954 18.709C14.3455 18.9075 14.4553 19.0858 14.61 19.2199C15.2 19.7299 15.11 23.2199 15.08 24.5799C15.0761 24.7352 15.1084 24.8892 15.1743 25.0298C15.2403 25.1704 15.3381 25.2937 15.46 25.3899C15.6372 25.5275 15.8556 25.6015 16.08 25.5999C16.163 25.6097 16.2469 25.6097 16.33 25.5999C19.4125 24.8178 22.1014 22.9328 23.8878 20.3017C25.6742 17.6707 26.4343 14.476 26.024 11.3224C25.6138 8.16873 24.0618 5.27484 21.6617 3.18834C19.2617 1.10184 16.18 -0.0325094 13 -5.48026e-05V-5.48026e-05Z" fill="#8385A9"/>
</svg>
